<svg width="50" height="50" viewBox="0 0 50 50" fill="none" xmlns="http://www.w3.org/2000/svg">
<circle cx="25" cy="25" r="25" fill="white"/>
<mask id="mask0_0_156" style="mask-type:alpha" maskUnits="userSpaceOnUse" x="13" y="13" width="24" height="24">
<rect x="13" y="13" width="24" height="24" fill="#D9D9D9"/>
</mask>
<g mask="url(#mask0_0_156)">
<path d="M20 26.6154C20.168 26.6154 20.3125 26.5548 20.4337 26.4337C20.5548 26.3125 20.6154 26.1679 20.6154 26C20.6154 25.8321 20.5548 25.6875 20.4337 25.5663C20.3125 25.4452 20.168 25.3846 20 25.3846C19.8321 25.3846 19.6875 25.4452 19.5663 25.5663C19.4452 25.6875 19.3846 25.8321 19.3846 26C19.3846 26.1679 19.4452 26.3125 19.5663 26.4337C19.6875 26.5548 19.8321 26.6154 20 26.6154ZM20 22.6154C20.168 22.6154 20.3125 22.5548 20.4337 22.4337C20.5548 22.3125 20.6154 22.168 20.6154 22C20.6154 21.832 20.5548 21.6875 20.4337 21.5663C20.3125 21.4452 20.168 21.3846 20 21.3846C19.8321 21.3846 19.6875 21.4452 19.5663 21.5663C19.4452 21.6875 19.3846 21.832 19.3846 22C19.3846 22.168 19.4452 22.3125 19.5663 22.4337C19.6875 22.5548 19.8321 22.6154 20 22.6154ZM22.1154 26.5H30.5V25.5H22.1154V26.5ZM22.1154 22.5H30.5V21.5H22.1154V22.5ZM22 33V31H17.6154C17.1551 31 16.7708 30.8458 16.4625 30.5375C16.1542 30.2292 16 29.8449 16 29.3846V18.6154C16 18.1551 16.1542 17.7708 16.4625 17.4625C16.7708 17.1542 17.1551 17 17.6154 17H32.3846C32.8449 17 33.2292 17.1542 33.5375 17.4625C33.8458 17.7708 34 18.1551 34 18.6154V29.3846C34 29.8449 33.8458 30.2292 33.5375 30.5375C33.2292 30.8458 32.8449 31 32.3846 31H28V33H22ZM17.6154 30H32.3846C32.5385 30 32.6795 29.9359 32.8077 29.8077C32.9359 29.6795 33 29.5385 33 29.3846V18.6154C33 18.4615 32.9359 18.3205 32.8077 18.1923C32.6795 18.0641 32.5385 18 32.3846 18H17.6154C17.4615 18 17.3205 18.0641 17.1923 18.1923C17.0641 18.3205 17 18.4615 17 18.6154V29.3846C17 29.5385 17.0641 29.6795 17.1923 29.8077C17.3205 29.9359 17.4615 30 17.6154 30Z" fill="#1D1D1D"/>
</g>
</svg>
