<svg width="32" height="32" viewBox="0 0 32 32" fill="none" xmlns="http://www.w3.org/2000/svg">
<mask id="mask0_0_285" style="mask-type:alpha" maskUnits="userSpaceOnUse" x="0" y="0" width="32" height="32">
<rect width="32" height="32" fill="#D9D9D9"/>
</mask>
<g mask="url(#mask0_0_285)">
<path d="M8 26V7.48721C8 6.87354 8.20556 6.36115 8.61667 5.95004C9.02778 5.53893 9.54017 5.33337 10.1538 5.33337H17.3333V6.66671H10.1538C9.94872 6.66671 9.76069 6.75217 9.58973 6.92311C9.4188 7.09406 9.33333 7.2821 9.33333 7.48721V23.9334L16 21.0667L22.6667 23.9334V14.6667H24V26L16 22.5641L8 26ZM22.6667 12V9.33337H20V8.00004H22.6667V5.33337H24V8.00004H26.6667V9.33337H24V12H22.6667Z" fill="#646464"/>
</g>
</svg>
