<svg width="50" height="50" viewBox="0 0 50 50" fill="none" xmlns="http://www.w3.org/2000/svg">
<circle cx="25" cy="25" r="25" fill="white"/>
<mask id="mask0_0_170" style="mask-type:alpha" maskUnits="userSpaceOnUse" x="13" y="13" width="24" height="24">
<rect x="13" y="13" width="24" height="24" fill="#D9D9D9"/>
</mask>
<g mask="url(#mask0_0_170)">
<path d="M17.6154 34C17.1551 34 16.7708 33.8458 16.4625 33.5375C16.1542 33.2292 16 32.8449 16 32.3846V22.6154C16 22.1551 16.1542 21.7708 16.4625 21.4625C16.7708 21.1542 17.1551 21 17.6154 21H23V17C23 16.7192 23.0965 16.4824 23.2894 16.2894C23.4824 16.0965 23.7192 16 24 16H26C26.2808 16 26.5176 16.0965 26.7106 16.2894C26.9035 16.4824 27 16.7192 27 17V21H32.3846C32.8449 21 33.2292 21.1542 33.5375 21.4625C33.8458 21.7708 34 22.1551 34 22.6154V32.3846C34 32.8449 33.8458 33.2292 33.5375 33.5375C33.2292 33.8458 32.8449 34 32.3846 34H17.6154ZM17.6154 33H32.3846C32.5641 33 32.7115 32.9423 32.8269 32.8269C32.9423 32.7115 33 32.5641 33 32.3846V22.6154C33 22.4359 32.9423 22.2885 32.8269 22.1731C32.7115 22.0577 32.5641 22 32.3846 22H27C27 22.3577 26.8907 22.6138 26.6721 22.7683C26.4535 22.9228 26.1654 23 25.8077 23H24.1923C23.8346 23 23.5465 22.9228 23.3279 22.7683C23.1093 22.6138 23 22.3577 23 22H17.6154C17.4359 22 17.2885 22.0577 17.1731 22.1731C17.0577 22.2885 17 22.4359 17 22.6154V32.3846C17 32.5641 17.0577 32.7115 17.1731 32.8269C17.2885 32.9423 17.4359 33 17.6154 33ZM19.3077 30.4231H24.6923V30.2808C24.6923 30.0487 24.6292 29.8375 24.5029 29.6471C24.3766 29.4567 24.2039 29.3077 23.9846 29.2C23.6641 29.0628 23.3394 28.9599 23.0106 28.8913C22.6817 28.8228 22.3449 28.7885 22 28.7885C21.6551 28.7885 21.3183 28.8228 20.9894 28.8913C20.6606 28.9599 20.3359 29.0628 20.0154 29.2C19.7961 29.3077 19.6234 29.4567 19.4971 29.6471C19.3708 29.8375 19.3077 30.0487 19.3077 30.2808V30.4231ZM27 28.8846H31V28H27V28.8846ZM22 28C22.3269 28 22.6074 27.883 22.8414 27.649C23.0753 27.4151 23.1923 27.1346 23.1923 26.8077C23.1923 26.4808 23.0753 26.2003 22.8414 25.9663C22.6074 25.7324 22.3269 25.6154 22 25.6154C21.6731 25.6154 21.3926 25.7324 21.1587 25.9663C20.9247 26.2003 20.8077 26.4808 20.8077 26.8077C20.8077 27.1346 20.9247 27.4151 21.1587 27.649C21.3926 27.883 21.6731 28 22 28ZM27 26.5H31V25.6154H27V26.5ZM24 22H26V17H24V22Z" fill="#1D1D1D"/>
</g>
</svg>
