<svg width="50" height="50" viewBox="0 0 50 50" fill="none" xmlns="http://www.w3.org/2000/svg">
<circle cx="25" cy="25" r="25" fill="white"/>
<mask id="mask0_0_184" style="mask-type:alpha" maskUnits="userSpaceOnUse" x="13" y="13" width="24" height="24">
<rect x="13" y="13" width="24" height="24" fill="#D9D9D9"/>
</mask>
<g mask="url(#mask0_0_184)">
<path d="M27.3827 27.3846C27.0788 26.7564 26.4702 26.2276 25.5567 25.7981C24.6433 25.3686 23.4769 25.1539 22.0577 25.1539C20.6385 25.1539 19.4721 25.3686 18.5587 25.7981C17.6452 26.2276 17.0366 26.7564 16.7327 27.3846H27.3827ZM15.4423 28.3846C15.4423 27.8077 15.5981 27.2628 15.9096 26.75C16.2212 26.2372 16.666 25.7884 17.2442 25.4038C17.8224 25.0192 18.5199 24.7147 19.3365 24.4904C20.1532 24.266 21.0635 24.1538 22.0673 24.1538C23.0712 24.1538 23.9782 24.266 24.7885 24.4904C25.5987 24.7147 26.293 25.0192 26.8712 25.4038C27.4494 25.7884 27.8942 26.2372 28.2058 26.75C28.5173 27.2628 28.6731 27.8077 28.6731 28.3846H15.4423ZM15.4423 31.6923V30.6923H28.6731V31.6923H15.4423ZM30.6731 35V34H32.0731L33.4731 20.3846H24.4615L24.3269 19.3846H28.9423V15.3846H29.9423V19.3846H34.5577L33.0616 34.0885C33.0244 34.3987 32.9062 34.6282 32.7071 34.7769C32.5079 34.9256 32.2684 35 31.9885 35H30.6731ZM16.0577 35C15.8833 35 15.7372 34.941 15.6192 34.8231C15.5013 34.7051 15.4423 34.559 15.4423 34.3846V34H28.6731V34.3846C28.6731 34.559 28.6189 34.7051 28.5106 34.8231C28.4022 34.941 28.2513 35 28.0577 35H16.0577Z" fill="#1D1D1D"/>
</g>
</svg>
