<svg width="50" height="50" viewBox="0 0 50 50" fill="none" xmlns="http://www.w3.org/2000/svg">
<circle cx="25" cy="25" r="25" fill="white"/>
<mask id="mask0_0_198" style="mask-type:alpha" maskUnits="userSpaceOnUse" x="13" y="13" width="24" height="24">
<rect x="13" y="13" width="24" height="24" fill="#D9D9D9"/>
</mask>
<g mask="url(#mask0_0_198)">
<path d="M14.9154 33.1923V31.5462C14.9154 31.1115 15.0314 30.7231 15.2635 30.3808C15.4955 30.0385 15.8231 29.7615 16.2462 29.55C17.0577 29.1423 17.9584 28.8141 18.9481 28.5654C19.9379 28.3167 20.927 28.1923 21.9154 28.1923C22.9039 28.1923 23.893 28.3167 24.8827 28.5654C25.8725 28.8141 26.7731 29.1423 27.5847 29.55C28.0077 29.7615 28.3353 30.0385 28.5674 30.3808C28.7994 30.7231 28.9154 31.1115 28.9154 31.5462V33.1923H14.9154ZM15.9154 32.1923H27.9154V31.5462C27.9154 31.2731 27.8375 31.0487 27.6818 30.8731C27.526 30.6974 27.3346 30.5487 27.1077 30.4269C26.4821 30.1013 25.6984 29.8141 24.7568 29.5654C23.8151 29.3167 22.868 29.1923 21.9154 29.1923C20.9628 29.1923 20.0157 29.3167 19.0741 29.5654C18.1324 29.8141 17.3487 30.1013 16.7231 30.4269C16.4962 30.5487 16.3048 30.6974 16.1491 30.8731C15.9933 31.0487 15.9154 31.2731 15.9154 31.5462V32.1923ZM21.9154 25.9616C21.059 25.9616 20.3449 25.6757 19.7731 25.1039C19.2013 24.5321 18.9154 23.7795 18.9154 22.8462H18.7039C18.5923 22.8462 18.5003 22.8099 18.4279 22.7375C18.3555 22.6651 18.3193 22.5731 18.3193 22.4615C18.3193 22.35 18.3555 22.258 18.4279 22.1856C18.5003 22.1131 18.5923 22.0769 18.7039 22.0769H18.9154C18.9411 21.5705 19.0475 21.1103 19.2346 20.6962C19.4218 20.2821 19.7257 19.8872 20.1462 19.5115V20.4615C20.1462 20.5731 20.1824 20.6651 20.2548 20.7375C20.3273 20.8099 20.4193 20.8462 20.5308 20.8462C20.6423 20.8462 20.7343 20.8099 20.8068 20.7375C20.8792 20.6651 20.9154 20.5731 20.9154 20.4615V19.15C21.0526 19.1 21.2077 19.0561 21.3808 19.0183C21.5539 18.9804 21.7321 18.9615 21.9154 18.9615C22.0987 18.9615 22.2769 18.9804 22.45 19.0183C22.6231 19.0561 22.7782 19.1 22.9154 19.15V20.4615C22.9154 20.5731 22.9516 20.6651 23.0241 20.7375C23.0965 20.8099 23.1885 20.8462 23.3 20.8462C23.4116 20.8462 23.5036 20.8099 23.576 20.7375C23.6484 20.6651 23.6847 20.5731 23.6847 20.4615V19.5115C24.118 19.8872 24.425 20.2821 24.6058 20.6962C24.7866 21.1103 24.8898 21.5705 24.9154 22.0769H25.127C25.2385 22.0769 25.3305 22.1131 25.4029 22.1856C25.4754 22.258 25.5116 22.35 25.5116 22.4615C25.5116 22.5731 25.4754 22.6651 25.4029 22.7375C25.3305 22.8099 25.2385 22.8462 25.127 22.8462H24.9154C24.9154 23.7795 24.6295 24.5321 24.0577 25.1039C23.4859 25.6757 22.7718 25.9616 21.9154 25.9616ZM21.9154 24.9615C22.4911 24.9615 22.9683 24.7721 23.3472 24.3933C23.726 24.0144 23.9154 23.5372 23.9154 22.9615H19.9154C19.9154 23.5372 20.1048 24.0144 20.4837 24.3933C20.8625 24.7721 21.3398 24.9615 21.9154 24.9615ZM29.4539 27.8462L29.3808 27.1346C29.2552 27.1013 29.1241 27.0478 28.9875 26.9741C28.851 26.9003 28.7347 26.8154 28.6385 26.7192L27.977 27.0077L27.5923 26.3385L28.1808 25.9154C28.1552 25.8397 28.1423 25.7705 28.1423 25.7077V25.3019C28.1423 25.2455 28.1552 25.1731 28.1808 25.0846L27.5923 24.6616L27.977 23.9923L28.6385 24.2808C28.7308 24.1885 28.8462 24.1045 28.9847 24.0289C29.1231 23.9532 29.2552 23.8987 29.3808 23.8654L29.4539 23.1539H30.2231L30.2962 23.8654C30.4218 23.8987 30.5539 23.9532 30.6923 24.0289C30.8308 24.1045 30.9462 24.1885 31.0385 24.2808L31.7 23.9923L32.0847 24.6616L31.4962 25.0846C31.5218 25.1731 31.5347 25.2455 31.5347 25.3019V25.7077C31.5347 25.7705 31.5218 25.8397 31.4962 25.9154L32.0847 26.3385L31.7 27.0077L31.0385 26.7192C30.9423 26.8154 30.826 26.9003 30.6895 26.9741C30.5529 27.0478 30.4218 27.1013 30.2962 27.1346L30.2231 27.8462H29.4539ZM29.8385 26.4039C30.0898 26.4039 30.3032 26.316 30.4789 26.1404C30.6545 25.9647 30.7423 25.7513 30.7423 25.5C30.7423 25.2487 30.6545 25.0353 30.4789 24.8596C30.3032 24.684 30.0898 24.5962 29.8385 24.5962C29.5872 24.5962 29.3738 24.684 29.1981 24.8596C29.0225 25.0353 28.9347 25.2487 28.9347 25.5C28.9347 25.7513 29.0225 25.9647 29.1981 26.1404C29.3738 26.316 29.5872 26.4039 29.8385 26.4039ZM31.8693 22.4231L31.7847 21.6423C31.5962 21.6051 31.3978 21.5298 31.1895 21.4164C30.9811 21.3029 30.8141 21.1641 30.6885 21L29.9462 21.3116L29.5154 20.5731L30.1731 20.0923C30.1398 19.9962 30.1167 19.8974 30.1039 19.7962C30.0911 19.6949 30.0847 19.5962 30.0847 19.5C30.0847 19.4039 30.0911 19.3051 30.1039 19.2039C30.1167 19.1026 30.1398 19.0039 30.1731 18.9077L29.5154 18.4269L29.9462 17.6885L30.6885 18C30.8141 17.8359 30.9811 17.6971 31.1895 17.5837C31.3978 17.4702 31.5962 17.3949 31.7847 17.3577L31.8693 16.5769H32.7308L32.8154 17.3577C33.0039 17.3949 33.2023 17.4702 33.4106 17.5837C33.6189 17.6971 33.7859 17.8359 33.9116 18L34.6539 17.6885L35.0847 18.4269L34.427 18.9077C34.4603 19.0039 34.4834 19.1026 34.4962 19.2039C34.509 19.3051 34.5154 19.4039 34.5154 19.5C34.5154 19.5962 34.509 19.6949 34.4962 19.7962C34.4834 19.8974 34.4603 19.9962 34.427 20.0923L35.0847 20.5731L34.6539 21.3116L33.9116 21C33.7859 21.1641 33.6189 21.3029 33.4106 21.4164C33.2023 21.5298 33.0039 21.6051 32.8154 21.6423L32.7308 22.4231H31.8693ZM32.3 20.8654C32.6885 20.8654 33.0132 20.7349 33.2741 20.4741C33.535 20.2132 33.6654 19.8885 33.6654 19.5C33.6654 19.1115 33.535 18.7869 33.2741 18.526C33.0132 18.2651 32.6885 18.1346 32.3 18.1346C31.9116 18.1346 31.5869 18.2651 31.326 18.526C31.0651 18.7869 30.9347 19.1115 30.9347 19.5C30.9347 19.8885 31.0651 20.2132 31.326 20.4741C31.5869 20.7349 31.9116 20.8654 32.3 20.8654Z" fill="#1D1D1D"/>
</g>
</svg>
