<svg width="242" height="242" viewBox="0 0 242 242" fill="none" xmlns="http://www.w3.org/2000/svg">
<path d="M0 0.799965C35.1 0.499965 70.3 0.0999584 92.3 19.2C114.3 38.2 123.3 76.6 140.7 101.3C158.2 126 184.2 137 202.3 158.2C220.5 179.4 230.8 210.7 241.2 242H0V0.799965Z" fill="#EFF0F2"/>
<path d="M0 61.0999C26.4 60.7999 52.7 60.5999 69.2 74.8999C85.8 89.0999 92.4 117.9 105.5 136.5C118.6 155 138.1 163.3 151.7 179.1C165.4 195 173.1 218.5 180.9 242H0V61.0999Z" fill="#EBEDF1"/>
<path d="M0 121.4C17.6 121.2 35.1 121.1 46.2 130.6C57.2 140.1 61.6 159.3 70.4 171.6C79.1 184 92.1 189.5 101.2 200.1C110.2 210.7 115.4 226.3 120.6 242H0V121.4Z" fill="#EEF2F9"/>
<path d="M0 181.7C8.8 181.6 17.6 181.5 23.1 186.3C28.6 191 30.8 200.6 35.2 206.8C39.5 213 46 215.8 50.6 221C55.1 226.3 57.7 234.2 60.3 242H0V181.7Z" fill="#F5F7FB"/>
</svg>
