<svg width="292" height="260" viewBox="0 0 292 260" fill="none" xmlns="http://www.w3.org/2000/svg">
<path d="M280.582 188.316C280.582 188.316 238.745 145.453 231.24 137.766C236.745 134.448 242.692 131.245 244.185 126.025C246.674 117.327 235.714 106.84 235.724 98.1855C235.735 89.2776 246.413 78.8872 244.273 70.3738C242.187 62.0794 226.827 55.639 222.615 47.8454C218.499 40.2294 223.169 25.7987 216.85 19.325C210.531 12.8506 195.992 17.1689 188.479 12.8688C180.748 8.44342 177.082 -6.21827 168.565 -8.34505C160.013 -10.4791 149.809 0.744961 140.955 0.920447C132.201 1.09401 121.676 -9.50548 113.033 -7.3323C104.262 -5.12692 93.8647 12.5127 91.8047 13.5715C83.9282 17.6196 69.6186 12.5803 63.1057 18.5203C56.6179 24.4343 60.3498 39.0809 55.6455 46.6436C51.0723 53.9941 36.2257 57.0934 33.7361 65.7917C31.2469 74.4884 42.2063 84.9719 42.1986 93.6307C42.1905 102.312 31.3346 113.835 33.7082 123.275C35.8491 131.789 50.1971 135.863 54.4323 143.699C58.5487 151.314 53.8784 165.744 60.1979 172.22C63.6382 175.745 69.5143 176.07 75.3668 176.331C76.0497 176.361 77.4298 176.77 76.9142 178.16C74.8067 185.524 57.8421 244.784 57.8421 244.784C56.4923 249.497 59.3152 252.537 64.1147 251.543L87.6056 246.667C92.4051 245.673 99.2307 247.626 102.777 251.009L120.131 267.574C123.677 270.958 127.681 269.871 129.03 265.158C129.03 265.158 148.671 196.508 148.681 196.487C149.173 195.498 149.915 195.489 150.322 195.69C154.932 197.968 161.037 199.863 165.456 198.752C169.789 197.662 173.038 193.617 176.156 189.233C176.409 188.876 177.053 188.114 177.923 189.141C177.936 189.157 227.592 240.035 227.592 240.035C231.015 243.542 235.055 242.6 236.57 237.939L243.985 215.121C245.501 210.462 250.581 205.5 255.278 204.099L278.269 197.242C282.963 195.84 284.005 191.823 280.582 188.316ZM194.13 152.744C172.187 174.16 140.932 180.315 113.63 171.376C73.5387 157.941 50.673 115.045 62.4222 73.9982C74.3044 32.4791 117.24 8.08733 158.814 18.8084C159.032 18.8646 159.249 18.925 159.467 18.9838C159.776 19.0657 160.084 19.1499 160.392 19.2358C173.309 22.9033 185.465 29.8832 195.497 40.1619C226.158 71.5783 225.546 122.082 194.13 152.744Z" fill="#E8EBF1"/>
<path d="M157.396 31.5041C157.274 31.469 157.151 31.4386 157.029 31.4042C134.653 25.0105 109.549 30.444 91.7353 47.8301C65.3009 73.6299 64.7835 116.125 90.5831 142.559C98.4557 150.625 107.885 156.274 117.936 159.502C118.793 159.784 119.656 160.056 120.532 160.306C156.044 170.47 193.201 149.849 203.365 114.337C213.527 78.8251 192.909 41.668 157.396 31.5041ZM177.892 80.2273L169.698 93.5354C167.16 97.6568 166.685 104.652 168.643 109.079L174.961 123.373C176.919 127.8 174.671 130.49 169.967 129.35L154.777 125.67C150.073 124.531 143.274 126.24 139.667 129.47L128.026 139.896C124.42 143.125 121.167 141.819 120.797 136.992L119.603 121.41C119.234 116.583 115.507 110.645 111.321 108.214L97.8084 100.364C93.6223 97.9328 93.8606 94.435 98.3361 92.5912L112.786 86.6406C117.262 84.7975 121.758 79.4176 122.778 74.6858L126.068 59.4086C127.087 54.6768 130.487 53.8219 133.622 57.509L143.748 69.413C146.884 73.1 153.389 75.7137 158.205 75.2205L173.751 73.6287C178.566 73.1365 180.43 76.1059 177.892 80.2273Z" fill="#E8EBF1"/>
</svg>
