<svg xmlns="http://www.w3.org/2000/svg" viewBox="0 0 766.7 193.5" xml:space="preserve" fill="#DF5112" class="logo"><path d="M58.5 86.5c-9.4-1.6-17.4.3-22.6 5.5-5.2 5.2-7.2 13.2-5.5 22.6 1.8 10.1 7.4 20.3 15.9 28.8s18.7 14.2 28.8 15.9c9.4 1.6 17.4-.3 22.6-5.5s7.2-13.2 5.5-22.6c-1.8-10.1-7.4-20.3-15.9-28.8-8.5-8.4-18.7-14.1-28.8-15.9z"></path><path d="M60.4 75.5c12.3 2.2 24.7 8.9 34.8 19 10.1 10.1 16.9 22.5 19 34.8.7 4 .9 7.9.6 11.6l66.7-88.5C174 32 157.8 15.8 137.3 8.3L48.9 74.9c3.7-.3 7.5-.1 11.5.6z"></path><path d="m183.5 58.9-75 99.5c-.1.1-.2.3-.3.4v.1c-.8 1-1.7 2-2.6 3-4 4-9 6.8-14.9 8.2-5.4 1.3-11.3 1.5-17.5.4-12.3-2.2-24.7-8.9-34.8-19-10.1-10.1-16.9-22.5-19-34.8-1.1-6.2-1-12.1.4-17.5 1.4-5.8 4.2-10.8 8.2-14.9.9-.9 1.9-1.8 3-2.6h.1c.1-.1.3-.2.4-.3l99.5-75c-6.2-1.6-12.6-2.5-19.3-2.5H0v111.6c0 41.1 33.3 74.4 74.4 74.4H186V78.1c.1-6.6-.8-13.1-2.5-19.2zM765.4 80.8H682l-24 31.9h74.9c-7.1 28.1-32.6 48.9-62.9 48.9-14.7 0-28.2-4.9-39-13.1-15.7-11.8-25.8-30.6-25.8-51.8 0-35.8 29-64.9 64.9-64.9 14.7 0 28.2 4.9 39 13.1l10-13.3 9.2-12.2C712 7.2 691.8 0 669.9 0c-53.4 0-96.8 43.3-96.8 96.8 0 31.6 15.1 59.6 38.5 77.3 16.2 12.2 36.4 19.5 58.2 19.5 53.4 0 96.8-43.3 96.8-96.8.1-5.5-.4-10.8-1.2-16zM573.2 3.7v31.9h-54.5v154.2h-31.9V35.6h-54.5l24-31.9zM417.4 3.7v186.1h-31.9v-137l-61.3 81.3L263 52.8v137h-31.9V49.9l34.8-46.2 58.3 77.4 58.4-77.4z"></path></svg>