<svg width="50" height="50" viewBox="0 0 50 50" fill="none" xmlns="http://www.w3.org/2000/svg">
<circle cx="25" cy="25" r="25" fill="white"/>
<mask id="mask0_0_163" style="mask-type:alpha" maskUnits="userSpaceOnUse" x="13" y="13" width="24" height="24">
<rect x="13" y="13" width="24" height="24" fill="#D9D9D9"/>
</mask>
<g mask="url(#mask0_0_163)">
<path d="M24.5 33.7692V30.7692H17.5V29.7692H32.5V30.7692H25.5V33.7692H24.5ZM21.6154 25.0385C21.8218 25.0385 22.0016 24.9619 22.1548 24.8087C22.308 24.6554 22.3846 24.4756 22.3846 24.2692C22.3846 24.0628 22.308 23.883 22.1548 23.7298C22.0016 23.5766 21.8218 23.5 21.6154 23.5C21.409 23.5 21.2292 23.5766 21.076 23.7298C20.9228 23.883 20.8462 24.0628 20.8462 24.2692C20.8462 24.4756 20.9228 24.6554 21.076 24.8087C21.2292 24.9619 21.409 25.0385 21.6154 25.0385ZM28.3846 25.0385C28.591 25.0385 28.7708 24.9619 28.924 24.8087C29.0772 24.6554 29.1538 24.4756 29.1538 24.2692C29.1538 24.0628 29.0772 23.883 28.924 23.7298C28.7708 23.5766 28.591 23.5 28.3846 23.5C28.1782 23.5 27.9984 23.5766 27.8452 23.7298C27.692 23.883 27.6154 24.0628 27.6154 24.2692C27.6154 24.4756 27.692 24.6554 27.8452 24.8087C27.9984 24.9619 28.1782 25.0385 28.3846 25.0385ZM19 22.5231L20.4962 18.2231C20.541 18.0795 20.6214 17.9679 20.7374 17.8884C20.8534 17.809 20.9819 17.7692 21.1231 17.7692H28.8769C29.0181 17.7692 29.1467 17.809 29.2626 17.8884C29.3786 17.9679 29.459 18.0795 29.5038 18.2231L31 22.5231V28.3154C31 28.4478 30.9574 28.5565 30.8723 28.6416C30.7873 28.7267 30.6785 28.7692 30.5462 28.7692H30.4538C30.3215 28.7692 30.2128 28.7267 30.1277 28.6416C30.0426 28.5565 30 28.4478 30 28.3154V26.7692H20V28.3154C20 28.4478 19.9575 28.5565 19.8724 28.6416C19.7873 28.7267 19.6785 28.7692 19.5462 28.7692H19.4538C19.3215 28.7692 19.2127 28.7267 19.1277 28.6416C19.0426 28.5565 19 28.4478 19 28.3154V22.5231ZM20.3038 21.7692H29.6962L28.65 18.7692H21.35L20.3038 21.7692ZM20 25.7692H30V22.7692H20V25.7692Z" fill="#1D1D1D"/>
</g>
</svg>
