<svg width="242" height="242" viewBox="0 0 242 242" fill="none" xmlns="http://www.w3.org/2000/svg">
<path d="M242 241.2C209.2 239.1 176.4 237 149.7 222.8C123 208.7 102.5 182.5 83.6001 158.4C64.8 134.3 47.6001 112.2 34.1001 86.1C20.6001 60 10.7 30 0.800049 0H242V241.2Z" fill="#EFF0F2"/>
<path d="M242 180.9C217.4 179.3 192.8 177.7 172.8 167.1C152.8 156.5 137.3 136.9 123.2 118.8C109.1 100.7 96.2 84.1 86.1 64.6C76 45 68.5 22.5 61.1 0H242V180.9Z" fill="#EBEDF1"/>
<path d="M242 120.6C225.6 119.5 209.2 118.5 195.8 111.4C182.5 104.3 172.2 91.3 162.8 79.2C153.4 67.1 144.8 56.1 138.1 43.1C131.3 30 126.4 15 121.4 0H242V120.6Z" fill="#EEF2F9"/>
<path d="M242 60.3C233.8 59.8 225.6 59.2 218.9 55.7C212.3 52.2 207.1 45.6 202.4 39.6C197.7 33.6 193.4 28 190 21.5C186.7 15 184.2 7.5 181.7 0H242V60.3Z" fill="#F5F7FB"/>
</svg>
