<svg width="25" height="25" viewBox="0 0 25 25" fill="none" xmlns="http://www.w3.org/2000/svg">
<mask id="mask0_0_31" style="mask-type:alpha" maskUnits="userSpaceOnUse" x="0" y="0" width="25" height="25">
<rect x="0.619141" y="0.317871" width="24" height="24" fill="#D9D9D9"/>
</mask>
<g mask="url(#mask0_0_31)">
<path d="M20.2191 21.3179L13.9191 15.0179C13.4191 15.4179 12.8441 15.7345 12.1941 15.9679C11.5441 16.2012 10.8525 16.3179 10.1191 16.3179C8.30247 16.3179 6.76497 15.6887 5.50664 14.4304C4.24831 13.172 3.61914 11.6345 3.61914 9.81787C3.61914 8.0012 4.24831 6.4637 5.50664 5.20537C6.76497 3.94704 8.30247 3.31787 10.1191 3.31787C11.9358 3.31787 13.4733 3.94704 14.7316 5.20537C15.99 6.4637 16.6191 8.0012 16.6191 9.81787C16.6191 10.5512 16.5025 11.2429 16.2691 11.8929C16.0358 12.5429 15.7191 13.1179 15.3191 13.6179L21.6191 19.9179L20.2191 21.3179ZM10.1191 14.3179C11.3691 14.3179 12.4316 13.8804 13.3066 13.0054C14.1816 12.1304 14.6191 11.0679 14.6191 9.81787C14.6191 8.56787 14.1816 7.50537 13.3066 6.63037C12.4316 5.75537 11.3691 5.31787 10.1191 5.31787C8.86914 5.31787 7.80664 5.75537 6.93164 6.63037C6.05664 7.50537 5.61914 8.56787 5.61914 9.81787C5.61914 11.0679 6.05664 12.1304 6.93164 13.0054C7.80664 13.8804 8.86914 14.3179 10.1191 14.3179Z" fill="#1C1B1F"/>
</g>
</svg>
