<svg width="50" height="50" viewBox="0 0 50 50" fill="none" xmlns="http://www.w3.org/2000/svg">
<circle cx="25" cy="25" r="25" fill="white"/>
<mask id="mask0_0_177" style="mask-type:alpha" maskUnits="userSpaceOnUse" x="13" y="13" width="24" height="24">
<rect x="13" y="13" width="24" height="24" fill="#D9D9D9"/>
</mask>
<g mask="url(#mask0_0_177)">
<path d="M25 32C25 30.6154 24.4744 29.3974 23.4231 28.3462C22.3718 27.2949 21.1538 26.7692 19.7692 26.7692C19.7692 28.1538 20.2949 29.3718 21.3462 30.4231C22.3974 31.4744 23.6154 32 25 32ZM25 26.7962C25.3949 26.7962 25.7199 26.6686 25.975 26.4135C26.2301 26.1583 26.3577 25.8333 26.3577 25.4385V25.3269C26.4654 25.4141 26.5837 25.4795 26.7125 25.5231C26.8414 25.5667 26.9846 25.5885 27.1423 25.5885C27.5372 25.5885 27.8686 25.4545 28.1365 25.1865C28.4045 24.9186 28.5385 24.5872 28.5385 24.1923C28.5385 23.8974 28.4689 23.641 28.3298 23.4231C28.1907 23.2051 27.9987 23.0462 27.7538 22.9462C27.9987 22.8462 28.1907 22.6872 28.3298 22.4692C28.4689 22.2513 28.5385 21.9949 28.5385 21.7C28.5385 21.3051 28.4045 20.9737 28.1365 20.7058C27.8686 20.4378 27.5372 20.3038 27.1423 20.3038C26.9846 20.3038 26.8414 20.3256 26.7125 20.3692C26.5837 20.4128 26.4654 20.4782 26.3577 20.5654V20.4154C26.3577 20.0205 26.2301 19.6955 25.975 19.4404C25.7199 19.1852 25.3949 19.0577 25 19.0577C24.6051 19.0577 24.2801 19.1852 24.025 19.4404C23.7699 19.6955 23.6423 20.0205 23.6423 20.4154V20.5654C23.5346 20.4782 23.4163 20.4128 23.2875 20.3692C23.1586 20.3256 23.0154 20.3038 22.8577 20.3038C22.4628 20.3038 22.1314 20.4378 21.8635 20.7058C21.5955 20.9737 21.4615 21.3051 21.4615 21.7C21.4615 21.9949 21.5311 22.2513 21.6702 22.4692C21.8093 22.6872 22.0013 22.8462 22.2462 22.9462C22.0013 23.0462 21.8093 23.2051 21.6702 23.4231C21.5311 23.641 21.4615 23.8974 21.4615 24.1923C21.4615 24.5872 21.5955 24.9186 21.8635 25.1865C22.1314 25.4545 22.4628 25.5885 22.8577 25.5885C23.0154 25.5885 23.1586 25.5667 23.2875 25.5231C23.4163 25.4795 23.5346 25.4141 23.6423 25.3269V25.4385C23.6423 25.8333 23.7699 26.1583 24.025 26.4135C24.2801 26.6686 24.6051 26.7962 25 26.7962ZM25 24.9192C24.4513 24.9192 23.9853 24.7285 23.6019 24.3471C23.2186 23.9657 23.0269 23.4987 23.0269 22.9462C23.0269 22.3974 23.2186 21.9314 23.6019 21.5481C23.9853 21.1647 24.4513 20.9731 25 20.9731C25.5487 20.9731 26.0147 21.1647 26.3981 21.5481C26.7814 21.9314 26.9731 22.3974 26.9731 22.9462C26.9731 23.4987 26.7814 23.9657 26.3981 24.3471C26.0147 24.7285 25.5487 24.9192 25 24.9192ZM25 32C26.3846 32 27.6026 31.4744 28.6538 30.4231C29.7051 29.3718 30.2308 28.1538 30.2308 26.7692C28.8462 26.7692 27.6282 27.2949 26.5769 28.3462C25.5256 29.3974 25 30.6154 25 32ZM17.6154 34C17.1551 34 16.7708 33.8458 16.4625 33.5375C16.1542 33.2292 16 32.8449 16 32.3846V17.6154C16 17.1551 16.1542 16.7708 16.4625 16.4625C16.7708 16.1542 17.1551 16 17.6154 16H32.3846C32.8449 16 33.2292 16.1542 33.5375 16.4625C33.8458 16.7708 34 17.1551 34 17.6154V32.3846C34 32.8449 33.8458 33.2292 33.5375 33.5375C33.2292 33.8458 32.8449 34 32.3846 34H17.6154ZM17.6154 33H32.3846C32.5385 33 32.6795 32.9359 32.8077 32.8077C32.9359 32.6795 33 32.5385 33 32.3846V17.6154C33 17.4615 32.9359 17.3205 32.8077 17.1923C32.6795 17.0641 32.5385 17 32.3846 17H17.6154C17.4615 17 17.3205 17.0641 17.1923 17.1923C17.0641 17.3205 17 17.4615 17 17.6154V32.3846C17 32.5385 17.0641 32.6795 17.1923 32.8077C17.3205 32.9359 17.4615 33 17.6154 33Z" fill="#D9D9D9"/>
</g>
</svg>
